<svg width="32" height="32" viewBox="0 0 32 32" fill="none" xmlns="http://www.w3.org/2000/svg">
<path d="M28.9997 14.3497H5.55172L12.609 7.29238C12.7364 7.16939 12.838 7.02226 12.9079 6.85959C12.9777 6.69692 13.0145 6.52196 13.0161 6.34492C13.0176 6.16788 12.9839 5.99231 12.9168 5.82845C12.8498 5.66458 12.7508 5.51571 12.6256 5.39052C12.5004 5.26533 12.3515 5.16633 12.1877 5.09929C12.0238 5.03225 11.8482 4.99851 11.6712 5.00005C11.4941 5.00159 11.3192 5.03837 11.1565 5.10825C10.9938 5.17813 10.8467 5.2797 10.7237 5.40705L1.39038 14.7404C1.14042 14.9904 1 15.3295 1 15.6831C1 16.0366 1.14042 16.3757 1.39038 16.6257L10.7237 25.9591C10.9752 26.2019 11.312 26.3363 11.6616 26.3333C12.0112 26.3302 12.3456 26.19 12.5928 25.9428C12.84 25.6956 12.9802 25.3612 12.9833 25.0116C12.9863 24.662 12.8519 24.3252 12.609 24.0737L5.55172 17.0164H28.9997C29.3533 17.0164 29.6925 16.8759 29.9425 16.6259C30.1926 16.3758 30.333 16.0367 30.333 15.6831C30.333 15.3294 30.1926 14.9903 29.9425 14.7402C29.6925 14.4902 29.3533 14.3497 28.9997 14.3497Z" fill="#272727"/>
</svg>
