<svg width="20" height="20" viewBox="0 0 20 20" fill="none" xmlns="http://www.w3.org/2000/svg">
<g clip-path="url(#clip0_298_2905)">
<path d="M19.9999 10.0778C19.9999 9.3827 19.9448 8.68384 19.8273 8H10.3999V11.9377H15.7985C15.5745 13.2077 14.6539 14.4861 13.5999 15.2L13.8007 17.6L16.7999 17.6C18.6913 15.819 19.9999 13.1889 19.9999 10.0778Z" fill="#4285F4"/>
<path d="M10.1563 20C12.8594 20 15.139 19.1236 16.8 17.6109L13.6 15.2C12.7014 15.8036 11.5116 16.0836 10.16 16.0836C7.54528 16.0836 5.19542 14.3418 4.39995 12H1.19995V14.5491C2.90137 17.8909 6.36681 20 10.1563 20Z" fill="#48B437"/>
<path d="M4.39989 12C3.9414 10.783 4.1414 9.21705 4.59989 8.00002L4.79989 5.60002L1.19988 5.40002C-0.352531 8.16893 -0.388213 11.6311 1.1642 14.4L4.39989 12Z" fill="#FBBC04"/>
<path d="M10.3493 3.91492C11.8089 3.89312 13.2197 4.42374 14.2768 5.39776L17.2 2.57383C15.349 0.894731 12.8924 -0.0284087 10.3493 0.000666546C6.47811 0.000666546 2.93802 2.05634 1.19995 5.4L4.60084 8C5.40969 5.65581 7.6782 3.91492 10.3493 3.91492Z" fill="#EA4335"/>
</g>
<defs>
<clipPath id="clip0_298_2905">
<rect width="20" height="20" fill="white"/>
</clipPath>
</defs>
</svg>
