<svg width="11" height="12" viewBox="0 0 11 12" fill="none" xmlns="http://www.w3.org/2000/svg">
<path d="M5.76126 12C5.40841 12 5.11186 11.8928 4.87162 11.6784C4.62387 11.4566 4.5 11.1386 4.5 10.7246C4.5 10.3105 4.62387 9.9963 4.87162 9.78189C5.11186 9.56007 5.40841 9.44917 5.76126 9.44917C6.10661 9.44917 6.3994 9.56007 6.63964 9.78189C6.87988 9.9963 7 10.3105 7 10.7246C7 11.1386 6.87988 11.4566 6.63964 11.6784C6.3994 11.8928 6.10661 12 5.76126 12ZM5.76126 7.15342C5.40841 7.15342 5.11186 7.04621 4.87162 6.83179C4.62387 6.60998 4.5 6.29205 4.5 5.878C4.5 5.46396 4.62387 5.14972 4.87162 4.9353C5.11186 4.71349 5.40841 4.60259 5.76126 4.60259C6.10661 4.60259 6.3994 4.71349 6.63964 4.9353C6.87988 5.14972 7 5.46396 7 5.878C7 6.29205 6.87988 6.60998 6.63964 6.83179C6.3994 7.04621 6.10661 7.15342 5.76126 7.15342ZM5.76126 2.55083C5.40841 2.55083 5.11186 2.44362 4.87162 2.22921C4.62387 2.00739 4.5 1.68946 4.5 1.27542C4.5 0.861367 4.62387 0.547134 4.87162 0.332717C5.11186 0.110906 5.40841 -3.97078e-08 5.76126 -5.51315e-08C6.10661 -7.0227e-08 6.3994 0.110906 6.63964 0.332717C6.87988 0.547134 7 0.861367 7 1.27542C7 1.68946 6.87988 2.00739 6.63964 2.22921C6.3994 2.44362 6.10661 2.55083 5.76126 2.55083Z" fill="#272727"/>
</svg>
