<svg width="29" height="29" viewBox="0 0 29 29" fill="none" xmlns="http://www.w3.org/2000/svg">
<path fill-rule="evenodd" clip-rule="evenodd" d="M0.818549 8.71658C0.414354 8.34763 0.391787 7.7273 0.768144 7.33106L6.90124 0.87381C7.27759 0.477561 7.91036 0.455438 8.31455 0.824395C8.71875 1.19335 8.74131 1.81368 8.36496 2.20992L3.81072 7.00487C12.439 7.20996 18.0699 10.3157 21.5695 14.3466C25.3402 18.6897 26.5439 23.9994 26.4988 27.5932C26.492 28.1346 26.0388 28.5681 25.4866 28.5614C24.9343 28.5548 24.4921 28.1105 24.4989 27.5691C24.5393 24.353 23.4455 19.5324 20.0465 15.6174C16.9917 12.0989 11.9976 9.22195 4.03356 8.97228L8.7682 13.2942C9.1724 13.6631 9.19496 14.2834 8.81861 14.6797C8.44225 15.0759 7.80949 15.0981 7.40529 14.7291L0.818549 8.71658Z" fill="#8C8775"/>
</svg>
