<svg width="16" height="16" viewBox="0 0 16 16" fill="none" xmlns="http://www.w3.org/2000/svg">
<g clip-path="url(#clip0_221_3289)">
<path fill-rule="evenodd" clip-rule="evenodd" d="M11.6592 13.4763C10.7706 14.0048 9.8186 14.5709 8.9802 15.0684C8.84173 15.1506 8.49327 15.3333 8.00113 15.3333C7.50893 15.3333 7.1788 15.159 7.02333 15.0684C5.02043 13.9019 2.40702 12.3394 1.51763 11.8001C0.628227 11.2608 0 10.8203 0 9.80282C0.00339052 9.17416 0.00688827 2.64779 0.00688827 1.75817C0.00688827 0.868545 0.82246 0.333123 1.80155 0.906002C2.78063 1.47888 8.0004 4.58785 8.0004 4.58785C8.0004 4.58785 13.3293 1.41431 14.1995 0.906002C15.1995 0.321878 15.9941 0.885236 15.9941 1.75107C15.9941 2.16899 15.9954 3.82621 15.9969 5.54173C15.9984 7.38043 16 9.28603 16 9.80456C16 10.8068 15.4054 11.2556 14.4822 11.8001C13.951 12.1134 12.8633 12.7603 11.6592 13.4763Z" fill="url(#paint0_linear_221_3289)"/>
</g>
<defs>
<linearGradient id="paint0_linear_221_3289" x1="16" y1="6.62455" x2="1.47205e-06" y2="6.62558" gradientUnits="userSpaceOnUse">
<stop stop-color="#3E99ED"/>
<stop offset="1" stop-color="#72CFFF"/>
</linearGradient>
<clipPath id="clip0_221_3289">
<rect width="16" height="16" fill="white"/>
</clipPath>
</defs>
</svg>
