<svg width="32" height="32" viewBox="0 0 32 32" fill="none" xmlns="http://www.w3.org/2000/svg">
<path d="M15.8333 28.6667C12.3929 28.6667 9.17092 27.356 6.76809 24.8986C4.31064 22.4957 3 19.2738 3 15.8333C3 12.3929 4.31064 9.17092 6.76809 6.76809C9.22553 4.36525 12.3929 3 15.8333 3C19.2738 3 22.4957 4.31064 24.8986 6.76809C27.3014 9.17092 28.6667 12.3929 28.6667 15.8333C28.6667 19.2738 27.356 22.4957 24.8986 24.8986C22.4411 27.3014 19.2738 28.6667 15.8333 28.6667ZM15.8333 4.0922C12.7206 4.0922 9.77163 5.29362 7.53262 7.53262C5.29362 9.77163 4.0922 12.7206 4.0922 15.8333C4.0922 18.9461 5.29362 21.895 7.53262 24.134C9.77163 26.3731 12.7206 27.5745 15.8333 27.5745C18.9461 27.5745 21.895 26.3731 24.134 24.134C26.3731 21.895 27.5745 18.9461 27.5745 15.8333C27.5745 12.7206 26.3731 9.77163 24.134 7.53262C21.895 5.29362 18.9461 4.0922 15.8333 4.0922V4.0922Z" fill="#A93535" stroke="#A93535"/>
<path d="M24.1348 6.75751L24.907 7.52969L7.5328 24.9038L6.76061 24.1317L24.1348 6.75751Z" fill="#A93535" stroke="#A93535"/>
<path d="M15.8333 28.6667C12.3929 28.6667 9.17092 27.356 6.76809 24.8986C4.31064 22.4957 3 19.2738 3 15.8333C3 12.3929 4.31064 9.17092 6.76809 6.76809C9.22553 4.36525 12.3929 3 15.8333 3C19.2738 3 22.4957 4.31064 24.8986 6.76809C27.3014 9.17092 28.6667 12.3929 28.6667 15.8333C28.6667 19.2738 27.356 22.4957 24.8986 24.8986C22.4411 27.3014 19.2738 28.6667 15.8333 28.6667ZM15.8333 4.0922C12.7206 4.0922 9.77163 5.29362 7.53262 7.53262C5.29362 9.77163 4.0922 12.7206 4.0922 15.8333C4.0922 18.9461 5.29362 21.895 7.53262 24.134C9.77163 26.3731 12.7206 27.5745 15.8333 27.5745C18.9461 27.5745 21.895 26.3731 24.134 24.134C26.3731 21.895 27.5745 18.9461 27.5745 15.8333C27.5745 12.7206 26.3731 9.77163 24.134 7.53262C21.895 5.29362 18.9461 4.0922 15.8333 4.0922V4.0922Z" fill="#A93535" stroke="#A93535"/>
<path d="M24.1348 6.75751L24.907 7.52969L7.5328 24.9038L6.76061 24.1317L24.1348 6.75751Z" fill="#A93535" stroke="#A93535"/>
</svg>
