<svg width="29" height="28" viewBox="0 0 29 28" fill="none" xmlns="http://www.w3.org/2000/svg">
<path fill-rule="evenodd" clip-rule="evenodd" d="M28.1815 8.15506C28.5856 7.7861 28.6082 7.16578 28.2319 6.76953L22.0988 0.312287C21.7224 -0.0839622 21.0896 -0.106086 20.6854 0.262872C20.2813 0.63183 20.2587 1.25215 20.635 1.6484L25.1893 6.44334C16.561 6.64844 10.9301 9.75423 7.43051 13.785C3.6598 18.1281 2.45614 23.4378 2.50121 27.0317C2.508 27.5731 2.96119 28.0066 3.51343 27.9999C4.06567 27.9933 4.50785 27.549 4.50106 27.0076C4.46073 23.7914 5.55447 18.9709 8.95353 15.0559C12.0083 11.5374 17.0024 8.66042 24.9664 8.41076L20.2318 12.7326C19.8276 13.1016 19.805 13.7219 20.1814 14.1182C20.5578 14.5144 21.1905 14.5365 21.5947 14.1676L28.1815 8.15506Z" fill="#8C8775"/>
</svg>
