<svg width="12" height="13" viewBox="0 0 12 13" fill="none" xmlns="http://www.w3.org/2000/svg">
<g clip-path="url(#clip0_270_1672)">
<path d="M10.3147 0.882542L10.322 2.34093C8.76845 0.728877 6.41188 0.0943699 4.22178 0.774132C1.71513 1.55215 0.0030078 3.87252 0.000170339 6.49635C-0.0131523 7.00755 0.759484 7.01058 0.750159 6.49933C0.75271 4.20085 2.2467 2.17297 4.44297 1.49129C6.4432 0.870461 8.59445 1.50164 9.9485 3.04857L8.16362 3.05807C7.66314 3.06076 7.66608 3.81161 8.16658 3.80887L10.7044 3.79498C10.9029 3.79389 11.0798 3.62937 11.0786 3.41555L11.0647 0.879664C11.0636 0.666737 10.8923 0.494424 10.6829 0.500138C10.4734 0.505852 10.3136 0.676487 10.3147 0.882542ZM11.25 6.50075C11.2475 8.79923 9.75341 10.8271 7.55714 11.5088C5.55691 12.1296 3.40566 11.4984 2.05161 9.95151L3.83649 9.94202C4.33697 9.93931 4.33403 9.18847 3.83353 9.19121C2.98759 9.19589 1.47336 9.20411 1.29572 9.2051C1.09716 9.20619 0.920289 9.37071 0.921463 9.58454L0.935353 12.1204C0.936523 12.3333 1.10778 12.5057 1.3206 12.4999C1.52656 12.4942 1.68638 12.3236 1.68534 12.1175C1.68293 11.6314 1.67797 10.6591 1.67797 10.6591C3.23156 12.2712 5.58812 12.9057 7.77822 12.2259C10.2849 11.4479 11.997 9.12751 11.9998 6.50368C12.0065 6.24808 11.8166 6.11986 11.6264 6.11912C11.4361 6.11837 11.2453 6.2451 11.25 6.50075Z" fill="#8C8775"/>
</g>
<defs>
<clipPath id="clip0_270_1672">
<rect width="12" height="12" fill="white" transform="translate(0 0.5)"/>
</clipPath>
</defs>
</svg>
