<svg width="32" height="32" viewBox="0 0 32 32" fill="none" xmlns="http://www.w3.org/2000/svg">
<path d="M17.4933 32H14.5067C13.4973 32 12.6453 31.244 12.5253 30.24L12.2067 27.7387C11.5707 27.532 10.9573 27.2773 10.3747 26.98L8.38267 28.528C7.57467 29.1533 6.43733 29.0813 5.736 28.36L3.636 26.26C2.92 25.5653 2.848 24.428 3.47333 23.6213L5.02133 21.628C4.72267 21.0453 4.468 20.432 4.26267 19.796L1.756 19.4773C0.756 19.3547 0 18.5027 0 17.4933V14.5067C0 13.4973 0.756 12.6453 1.76 12.5253L4.26133 12.2067C4.468 11.5707 4.72267 10.9573 5.02 10.3747L3.47333 8.38267C2.84667 7.57467 2.92 6.436 3.64267 5.73467L5.74267 3.63467C6.43733 2.91867 7.576 2.848 8.38133 3.472L10.3733 5.02133C10.956 4.724 11.5693 4.46933 12.2067 4.26267L12.5253 1.756C12.6453 0.756 13.4973 0 14.5067 0H17.4933C18.5027 0 19.3547 0.756 19.4747 1.76L19.7933 4.26133C20.4307 4.468 21.044 4.72267 21.6267 5.02L23.6187 3.472C24.428 2.84667 25.564 2.91867 26.2653 3.64133L28.3653 5.74133C29.0813 6.436 29.1533 7.57333 28.528 8.38L26.98 10.3733C27.2787 10.956 27.5333 11.5693 27.7387 12.2053L30.2453 12.524C31.244 12.6453 32 13.4973 32 14.5067V17.4933C32 18.5027 31.244 19.3547 30.24 19.4747L27.7387 19.7933C27.532 20.4293 27.2773 21.0427 26.98 21.6253L28.528 23.6173C29.1547 24.4253 29.0813 25.5627 28.3587 26.264L26.2587 28.364C25.564 29.08 24.4253 29.1533 23.62 28.5267L21.6267 26.9787C21.044 27.2773 20.4307 27.532 19.7947 27.7373L19.476 30.244C19.3547 31.244 18.5027 32 17.4933 32ZM10.3067 25.52C10.4173 25.52 10.5307 25.548 10.632 25.604C11.3667 26.0147 12.1627 26.3453 12.9973 26.5853C13.2533 26.6587 13.4413 26.8773 13.4747 27.1413L13.848 30.0747C13.888 30.4093 14.1773 30.6667 14.5067 30.6667H17.4933C17.8227 30.6667 18.112 30.4093 18.1507 30.0813L18.5253 27.1427C18.5587 26.8787 18.7467 26.66 19.0027 26.5867C19.8373 26.3467 20.6333 26.016 21.368 25.6053C21.6013 25.4747 21.892 25.4973 22.1013 25.6613L24.4347 27.4747C24.7027 27.6827 25.0787 27.6653 25.308 27.4293L27.4213 25.316C27.6627 25.0813 27.6813 24.7053 27.4733 24.436L25.66 22.1027C25.496 21.892 25.4733 21.6027 25.604 21.3693C26.0147 20.6347 26.3453 19.8387 26.5853 19.004C26.6587 18.748 26.8773 18.56 27.1413 18.5267L30.0747 18.1533C30.4093 18.112 30.6667 17.8227 30.6667 17.4933V14.5067C30.6667 14.1773 30.4093 13.888 30.0813 13.8493L27.1427 13.4747C26.8787 13.4413 26.66 13.2533 26.5867 12.9973C26.3467 12.1627 26.016 11.3667 25.6053 10.632C25.4747 10.3987 25.496 10.1093 25.6613 9.89867L27.4747 7.56533C27.684 7.296 27.6653 6.92 27.4307 6.69333L25.3173 4.58C25.084 4.33733 24.7067 4.31867 24.4373 4.528L22.104 6.34133C21.892 6.50533 21.6027 6.528 21.3693 6.39733C20.6373 5.98667 19.8413 5.65733 19.004 5.416C18.748 5.34267 18.56 5.124 18.5267 4.86L18.1533 1.92667C18.112 1.59067 17.8227 1.33333 17.4933 1.33333H14.5067C14.1773 1.33333 13.888 1.59067 13.8493 1.91867L13.4747 4.85733C13.4413 5.12133 13.2533 5.34 12.9973 5.41467C12.16 5.65467 11.364 5.98533 10.632 6.39467C10.3987 6.52667 10.1093 6.50267 9.89733 6.34L7.564 4.52667C7.29467 4.31733 6.92 4.336 6.692 4.57067L4.57867 6.68533C4.33733 6.92 4.31867 7.296 4.52667 7.56533L6.34 9.89867C6.504 10.1093 6.52667 10.3987 6.396 10.632C5.984 11.3667 5.65467 12.1627 5.41467 12.9973C5.34133 13.2533 5.12267 13.4413 4.85867 13.4747L1.92533 13.848C1.59067 13.888 1.33333 14.1773 1.33333 14.5067V17.4933C1.33333 17.8227 1.59067 18.112 1.91867 18.1507L4.85733 18.5253C5.12133 18.5587 5.34 18.7467 5.41333 19.0027C5.65333 19.8373 5.984 20.6333 6.39467 21.368C6.52533 21.6013 6.504 21.8907 6.33867 22.1013L4.52533 24.4347C4.316 24.704 4.33467 25.08 4.56933 25.3067L6.68267 27.42C6.916 27.6613 7.29067 27.68 7.56267 27.472L9.896 25.6587C10.0173 25.568 10.1613 25.52 10.3067 25.52Z" fill="#272727"/>
<path d="M15.9999 22.6667C12.3239 22.6667 9.33325 19.676 9.33325 16C9.33325 12.324 12.3239 9.33337 15.9999 9.33337C19.6759 9.33337 22.6666 12.324 22.6666 16C22.6666 19.676 19.6759 22.6667 15.9999 22.6667ZM15.9999 10.6667C13.0586 10.6667 10.6666 13.0587 10.6666 16C10.6666 18.9414 13.0586 21.3334 15.9999 21.3334C18.9413 21.3334 21.3333 18.9414 21.3333 16C21.3333 13.0587 18.9413 10.6667 15.9999 10.6667Z" fill="#272727"/>
</svg>
