<svg width="32" height="32" viewBox="0 0 32 32" fill="none" xmlns="http://www.w3.org/2000/svg">
<rect width="32" height="32" rx="16" fill="#FCE181"/>
<path d="M25.428 19.905C23.9757 18.4529 22.2472 17.3778 20.3612 16.727C22.3811 15.3358 23.7082 13.0075 23.7082 10.3748C23.7082 6.12447 20.2502 2.6665 15.9998 2.6665C11.7495 2.6665 8.2915 6.12447 8.2915 10.3748C8.2915 13.0075 9.61854 15.3358 11.6385 16.727C9.75255 17.3778 8.024 18.4529 6.57176 19.905C4.05343 22.4234 2.6665 25.7717 2.6665 29.3332H4.74984C4.74984 23.1299 9.79656 18.0832 15.9998 18.0832C22.2031 18.0832 27.2498 23.1299 27.2498 29.3332H29.3332C29.3332 25.7717 27.9462 22.4234 25.428 19.905ZM15.9998 15.9998C12.8982 15.9998 10.3748 13.4765 10.3748 10.3748C10.3748 7.27317 12.8982 4.74984 15.9998 4.74984C19.1015 4.74984 21.6248 7.27317 21.6248 10.3748C21.6248 13.4765 19.1015 15.9998 15.9998 15.9998Z" fill="#272727"/>
</svg>
